# xmcd
#
# Track frame offsets:
#	150
#	14161
#	31395
#	45711
#	58995
#	73233
#	87569
#	100170
#	114693
#	127321
#	145523
#	159881
#
# Disc length: 2393 seconds
#
# Revision: 1
# Processed by: cddbd v1.5.2PL0 Copyright (c) Steve Scherf et al.
# Submitted via: EasyCDDAExtractor 2011.3.0.0
#
DISCID=b209570c
DTITLE=Adrian Otero - El Jinete del Blues
DYEAR=2012
DGENRE=Blues
TTITLE0=Me Gustas Mucho
TTITLE1=Rock and Roll y Fiebre
TTITLE2=No Pibe
TTITLE3=Blues Local
TTITLE4=Juntos a la Par
TTITLE5=Salgan al Sol
TTITLE6=Cafe Madrid
TTITLE7=Desconfío
TTITLE8=Me Gusta ese Tajo
TTITLE9=Vamos las Bandas
TTITLE10=La Flor mas Bella
TTITLE11=La Última Lágrima
EXTD=
EXTT0=
EXTT1=
EXTT2=
EXTT3=
EXTT4=
EXTT5=
EXTT6=
EXTT7=
EXTT8=
EXTT9=
EXTT10=
EXTT11=
PLAYORDER=
